<svg width="295" height="54" viewBox="0 0 295 54" fill="none" xmlns="http://www.w3.org/2000/svg">
<path d="M6.16992 13.7402H9.16699V16.2803H6.16992V19.7168H3.40137V16.2803H0.395508V13.7402H3.40137V10.4004H6.16992V13.7402ZM19.292 9.78516L14.5107 21H11.3818L16.1719 10.4883H10.0723V8.20312H19.292V9.78516ZM25.5762 15.7969C25.5762 14.3672 25.7666 13.0371 26.1475 11.8066C26.5283 10.5762 27.0527 9.5332 27.7207 8.67773C28.3945 7.82227 29.1416 7.22461 29.9619 6.88477L30.5244 8.34375C29.7041 8.94727 29.0684 9.89062 28.6172 11.1738C28.1719 12.4512 27.9463 13.9512 27.9404 15.6738V16.0605C27.9404 17.8242 28.1631 19.3535 28.6084 20.6484C29.0596 21.9434 29.6982 22.8926 30.5244 23.4961L29.9619 24.9551C29.1533 24.627 28.4062 24.0264 27.7207 23.1533C27.041 22.2861 26.5166 21.249 26.1475 20.042C25.7783 18.835 25.5879 17.5518 25.5762 16.1924V15.7969ZM37.5029 16.0518C36.8643 16.626 36.1494 16.9131 35.3584 16.9131C34.1982 16.9131 33.2783 16.5205 32.5986 15.7354C31.9189 14.9502 31.5791 13.9014 31.5791 12.5889C31.5791 11.7686 31.7695 11.0068 32.1504 10.3037C32.5312 9.60059 33.0645 9.04395 33.75 8.63379C34.4414 8.22363 35.2031 8.01855 36.0352 8.01855C36.8789 8.01855 37.6406 8.23242 38.3203 8.66016C39.0059 9.08203 39.5391 9.68262 39.9199 10.4619C40.3008 11.2354 40.4971 12.1289 40.5088 13.1426V14.2764C40.5088 15.6885 40.2305 16.9131 39.6738 17.9502C39.123 18.9873 38.335 19.7842 37.3096 20.3408C36.2842 20.8975 35.0889 21.1758 33.7236 21.1758H33.5391V18.8027L34.1016 18.7939C36.1406 18.6943 37.2744 17.7803 37.5029 16.0518ZM36.1582 14.7773C36.8027 14.7773 37.2656 14.499 37.5469 13.9424V12.7119C37.5469 11.8916 37.4092 11.2852 37.1338 10.8926C36.8584 10.5 36.4863 10.3037 36.0176 10.3037C35.6016 10.3037 35.2529 10.5264 34.9717 10.9717C34.6904 11.417 34.5498 11.9561 34.5498 12.5889C34.5498 13.2568 34.6934 13.79 34.9805 14.1885C35.2676 14.5811 35.6602 14.7773 36.1582 14.7773ZM51.0205 21H42.0908V19.0664L46.2041 14.7422C47.2178 13.5879 47.7246 12.6709 47.7246 11.9912C47.7246 11.4404 47.6045 11.0215 47.3643 10.7344C47.124 10.4473 46.7754 10.3037 46.3184 10.3037C45.8672 10.3037 45.501 10.4971 45.2197 10.8838C44.9385 11.2646 44.7979 11.7422 44.7979 12.3164H41.8271C41.8271 11.5312 42.0234 10.8076 42.416 10.1455C42.8086 9.47754 43.3535 8.95605 44.0508 8.58105C44.748 8.20605 45.5273 8.01855 46.3887 8.01855C47.7715 8.01855 48.835 8.33789 49.5791 8.97656C50.3291 9.61523 50.7041 10.5322 50.7041 11.7275C50.7041 12.2314 50.6104 12.7236 50.4229 13.2041C50.2354 13.6787 49.9424 14.1797 49.5439 14.707C49.1514 15.2285 48.5156 15.9287 47.6367 16.8076L45.9844 18.7148H51.0205V21ZM59.6689 8.01855V10.3477H59.5371C58.4297 10.3477 57.5186 10.6143 56.8037 11.1475C56.0947 11.6748 55.6582 12.4102 55.4941 13.3535C56.1621 12.6973 57.0059 12.3691 58.0254 12.3691C59.1328 12.3691 60.0146 12.7734 60.6709 13.582C61.3271 14.3906 61.6553 15.4512 61.6553 16.7637C61.6553 17.5781 61.4619 18.3252 61.0752 19.0049C60.6943 19.6846 60.1582 20.2178 59.4668 20.6045C58.7812 20.9854 58.0195 21.1758 57.1816 21.1758C56.2734 21.1758 55.4619 20.9707 54.7471 20.5605C54.0322 20.1445 53.4756 19.5527 53.0771 18.7852C52.6787 18.0176 52.4736 17.1328 52.4619 16.1309V14.9443C52.4619 13.626 52.7432 12.4424 53.3057 11.3936C53.874 10.3389 54.6826 9.5127 55.7314 8.91504C56.7803 8.31738 57.9434 8.01855 59.2207 8.01855H59.6689ZM56.9971 14.6367C56.6045 14.6367 56.2764 14.7275 56.0127 14.9092C55.749 15.0908 55.5527 15.3135 55.4238 15.5771V16.4648C55.4238 18.082 55.9834 18.8906 57.1025 18.8906C57.5537 18.8906 57.9287 18.6885 58.2275 18.2842C58.5322 17.8799 58.6846 17.373 58.6846 16.7637C58.6846 16.1367 58.5293 15.627 58.2188 15.2344C57.9141 14.8359 57.5068 14.6367 56.9971 14.6367ZM67.6582 16.043C67.6582 17.4199 67.4561 18.7266 67.0518 19.9629C66.6475 21.1992 66.0879 22.2598 65.373 23.1445C64.6641 24.0352 63.8965 24.6387 63.0703 24.9551L62.5078 23.4961C63.3223 22.8867 63.9521 21.9492 64.3975 20.6836C64.8428 19.418 65.0742 17.9619 65.0918 16.3154V15.7793C65.0918 14.0156 64.8662 12.4863 64.415 11.1914C63.9697 9.89648 63.334 8.94727 62.5078 8.34375L63.0703 6.88477C63.8906 7.20703 64.6523 7.80469 65.3555 8.67773C66.0645 9.54492 66.6211 10.5908 67.0254 11.8154C67.4355 13.0342 67.6465 14.3145 67.6582 15.6562V16.043ZM82.6523 15.7705C82.6523 17.499 82.2627 18.832 81.4834 19.7695C80.71 20.707 79.6172 21.1758 78.2051 21.1758C76.7812 21.1758 75.6797 20.7041 74.9004 19.7607C74.1211 18.8174 73.7314 17.4873 73.7314 15.7705V13.4326C73.7314 11.7041 74.1182 10.3711 74.8916 9.43359C75.6709 8.49609 76.7695 8.02734 78.1875 8.02734C79.6055 8.02734 80.7041 8.49902 81.4834 9.44238C82.2627 10.3857 82.6523 11.7188 82.6523 13.4414V15.7705ZM79.6904 13.0547C79.6904 12.1348 79.5703 11.4492 79.3301 10.998C79.0898 10.541 78.709 10.3125 78.1875 10.3125C77.6777 10.3125 77.3057 10.5234 77.0713 10.9453C76.8428 11.3672 76.7197 12.0059 76.7021 12.8613V16.1309C76.7021 17.0859 76.8223 17.7861 77.0625 18.2314C77.3027 18.6709 77.6836 18.8906 78.2051 18.8906C78.709 18.8906 79.0811 18.6768 79.3213 18.249C79.5615 17.8154 79.6846 17.1387 79.6904 16.2188V13.0547ZM93.0762 15.7705C93.0762 17.499 92.6865 18.832 91.9072 19.7695C91.1338 20.707 90.041 21.1758 88.6289 21.1758C87.2051 21.1758 86.1035 20.7041 85.3242 19.7607C84.5449 18.8174 84.1553 17.4873 84.1553 15.7705V13.4326C84.1553 11.7041 84.542 10.3711 85.3154 9.43359C86.0947 8.49609 87.1934 8.02734 88.6113 8.02734C90.0293 8.02734 91.1279 8.49902 91.9072 9.44238C92.6865 10.3857 93.0762 11.7188 93.0762 13.4414V15.7705ZM90.1143 13.0547C90.1143 12.1348 89.9941 11.4492 89.7539 10.998C89.5137 10.541 89.1328 10.3125 88.6113 10.3125C88.1016 10.3125 87.7295 10.5234 87.4951 10.9453C87.2666 11.3672 87.1436 12.0059 87.126 12.8613V16.1309C87.126 17.0859 87.2461 17.7861 87.4863 18.2314C87.7266 18.6709 88.1074 18.8906 88.6289 18.8906C89.1328 18.8906 89.5049 18.6768 89.7451 18.249C89.9854 17.8154 90.1084 17.1387 90.1143 16.2188V13.0547ZM103.5 15.7705C103.5 17.499 103.11 18.832 102.331 19.7695C101.558 20.707 100.465 21.1758 99.0527 21.1758C97.6289 21.1758 96.5273 20.7041 95.748 19.7607C94.9688 18.8174 94.5791 17.4873 94.5791 15.7705V13.4326C94.5791 11.7041 94.9658 10.3711 95.7393 9.43359C96.5186 8.49609 97.6172 8.02734 99.0352 8.02734C100.453 8.02734 101.552 8.49902 102.331 9.44238C103.11 10.3857 103.5 11.7188 103.5 13.4414V15.7705ZM100.538 13.0547C100.538 12.1348 100.418 11.4492 100.178 10.998C99.9375 10.541 99.5566 10.3125 99.0352 10.3125C98.5254 10.3125 98.1533 10.5234 97.9189 10.9453C97.6904 11.3672 97.5674 12.0059 97.5498 12.8613V16.1309C97.5498 17.0859 97.6699 17.7861 97.9102 18.2314C98.1504 18.6709 98.5312 18.8906 99.0527 18.8906C99.5566 18.8906 99.9287 18.6768 100.169 18.249C100.409 17.8154 100.532 17.1387 100.538 16.2188V13.0547ZM118.406 15.7705C118.406 17.499 118.017 18.832 117.237 19.7695C116.464 20.707 115.371 21.1758 113.959 21.1758C112.535 21.1758 111.434 20.7041 110.654 19.7607C109.875 18.8174 109.485 17.4873 109.485 15.7705V13.4326C109.485 11.7041 109.872 10.3711 110.646 9.43359C111.425 8.49609 112.523 8.02734 113.941 8.02734C115.359 8.02734 116.458 8.49902 117.237 9.44238C118.017 10.3857 118.406 11.7188 118.406 13.4414V15.7705ZM115.444 13.0547C115.444 12.1348 115.324 11.4492 115.084 10.998C114.844 10.541 114.463 10.3125 113.941 10.3125C113.432 10.3125 113.06 10.5234 112.825 10.9453C112.597 11.3672 112.474 12.0059 112.456 12.8613V16.1309C112.456 17.0859 112.576 17.7861 112.816 18.2314C113.057 18.6709 113.438 18.8906 113.959 18.8906C114.463 18.8906 114.835 18.6768 115.075 18.249C115.315 17.8154 115.438 17.1387 115.444 16.2188V13.0547ZM128.83 15.7705C128.83 17.499 128.44 18.832 127.661 19.7695C126.888 20.707 125.795 21.1758 124.383 21.1758C122.959 21.1758 121.857 20.7041 121.078 19.7607C120.299 18.8174 119.909 17.4873 119.909 15.7705V13.4326C119.909 11.7041 120.296 10.3711 121.069 9.43359C121.849 8.49609 122.947 8.02734 124.365 8.02734C125.783 8.02734 126.882 8.49902 127.661 9.44238C128.44 10.3857 128.83 11.7188 128.83 13.4414V15.7705ZM125.868 13.0547C125.868 12.1348 125.748 11.4492 125.508 10.998C125.268 10.541 124.887 10.3125 124.365 10.3125C123.855 10.3125 123.483 10.5234 123.249 10.9453C123.021 11.3672 122.897 12.0059 122.88 12.8613V16.1309C122.88 17.0859 123 17.7861 123.24 18.2314C123.48 18.6709 123.861 18.8906 124.383 18.8906C124.887 18.8906 125.259 18.6768 125.499 18.249C125.739 17.8154 125.862 17.1387 125.868 16.2188V13.0547ZM143.736 15.7705C143.736 17.499 143.347 18.832 142.567 19.7695C141.794 20.707 140.701 21.1758 139.289 21.1758C137.865 21.1758 136.764 20.7041 135.984 19.7607C135.205 18.8174 134.815 17.4873 134.815 15.7705V13.4326C134.815 11.7041 135.202 10.3711 135.976 9.43359C136.755 8.49609 137.854 8.02734 139.271 8.02734C140.689 8.02734 141.788 8.49902 142.567 9.44238C143.347 10.3857 143.736 11.7188 143.736 13.4414V15.7705ZM140.774 13.0547C140.774 12.1348 140.654 11.4492 140.414 10.998C140.174 10.541 139.793 10.3125 139.271 10.3125C138.762 10.3125 138.39 10.5234 138.155 10.9453C137.927 11.3672 137.804 12.0059 137.786 12.8613V16.1309C137.786 17.0859 137.906 17.7861 138.146 18.2314C138.387 18.6709 138.768 18.8906 139.289 18.8906C139.793 18.8906 140.165 18.6768 140.405 18.249C140.646 17.8154 140.769 17.1387 140.774 16.2188V13.0547ZM154.16 15.7705C154.16 17.499 153.771 18.832 152.991 19.7695C152.218 20.707 151.125 21.1758 149.713 21.1758C148.289 21.1758 147.188 20.7041 146.408 19.7607C145.629 18.8174 145.239 17.4873 145.239 15.7705V13.4326C145.239 11.7041 145.626 10.3711 146.399 9.43359C147.179 8.49609 148.277 8.02734 149.695 8.02734C151.113 8.02734 152.212 8.49902 152.991 9.44238C153.771 10.3857 154.16 11.7188 154.16 13.4414V15.7705ZM151.198 13.0547C151.198 12.1348 151.078 11.4492 150.838 10.998C150.598 10.541 150.217 10.3125 149.695 10.3125C149.186 10.3125 148.813 10.5234 148.579 10.9453C148.351 11.3672 148.228 12.0059 148.21 12.8613V16.1309C148.21 17.0859 148.33 17.7861 148.57 18.2314C148.811 18.6709 149.191 18.8906 149.713 18.8906C150.217 18.8906 150.589 18.6768 150.829 18.249C151.069 17.8154 151.192 17.1387 151.198 16.2188V13.0547Z" fill="#E1E6E9"/>
<path d="M6.16992 42.7402H9.16699V45.2803H6.16992V48.7168H3.40137V45.2803H0.395508V42.7402H3.40137V39.4004H6.16992V42.7402ZM19.292 38.7852L14.5107 50H11.3818L16.1719 39.4883H10.0723V37.2031H19.292V38.7852ZM25.5762 44.7969C25.5762 43.3672 25.7666 42.0371 26.1475 40.8066C26.5283 39.5762 27.0527 38.5332 27.7207 37.6777C28.3945 36.8223 29.1416 36.2246 29.9619 35.8848L30.5244 37.3438C29.7041 37.9473 29.0684 38.8906 28.6172 40.1738C28.1719 41.4512 27.9463 42.9512 27.9404 44.6738V45.0605C27.9404 46.8242 28.1631 48.3535 28.6084 49.6484C29.0596 50.9434 29.6982 51.8926 30.5244 52.4961L29.9619 53.9551C29.1533 53.627 28.4062 53.0264 27.7207 52.1533C27.041 51.2861 26.5166 50.249 26.1475 49.042C25.7783 47.835 25.5879 46.5518 25.5762 45.1924V44.7969ZM37.5029 45.0518C36.8643 45.626 36.1494 45.9131 35.3584 45.9131C34.1982 45.9131 33.2783 45.5205 32.5986 44.7354C31.9189 43.9502 31.5791 42.9014 31.5791 41.5889C31.5791 40.7686 31.7695 40.0068 32.1504 39.3037C32.5312 38.6006 33.0645 38.0439 33.75 37.6338C34.4414 37.2236 35.2031 37.0186 36.0352 37.0186C36.8789 37.0186 37.6406 37.2324 38.3203 37.6602C39.0059 38.082 39.5391 38.6826 39.9199 39.4619C40.3008 40.2354 40.4971 41.1289 40.5088 42.1426V43.2764C40.5088 44.6885 40.2305 45.9131 39.6738 46.9502C39.123 47.9873 38.335 48.7842 37.3096 49.3408C36.2842 49.8975 35.0889 50.1758 33.7236 50.1758H33.5391V47.8027L34.1016 47.7939C36.1406 47.6943 37.2744 46.7803 37.5029 45.0518ZM36.1582 43.7773C36.8027 43.7773 37.2656 43.499 37.5469 42.9424V41.7119C37.5469 40.8916 37.4092 40.2852 37.1338 39.8926C36.8584 39.5 36.4863 39.3037 36.0176 39.3037C35.6016 39.3037 35.2529 39.5264 34.9717 39.9717C34.6904 40.417 34.5498 40.9561 34.5498 41.5889C34.5498 42.2568 34.6934 42.79 34.9805 43.1885C35.2676 43.5811 35.6602 43.7773 36.1582 43.7773ZM51.0205 50H42.0908V48.0664L46.2041 43.7422C47.2178 42.5879 47.7246 41.6709 47.7246 40.9912C47.7246 40.4404 47.6045 40.0215 47.3643 39.7344C47.124 39.4473 46.7754 39.3037 46.3184 39.3037C45.8672 39.3037 45.501 39.4971 45.2197 39.8838C44.9385 40.2646 44.7979 40.7422 44.7979 41.3164H41.8271C41.8271 40.5312 42.0234 39.8076 42.416 39.1455C42.8086 38.4775 43.3535 37.9561 44.0508 37.5811C44.748 37.2061 45.5273 37.0186 46.3887 37.0186C47.7715 37.0186 48.835 37.3379 49.5791 37.9766C50.3291 38.6152 50.7041 39.5322 50.7041 40.7275C50.7041 41.2314 50.6104 41.7236 50.4229 42.2041C50.2354 42.6787 49.9424 43.1797 49.5439 43.707C49.1514 44.2285 48.5156 44.9287 47.6367 45.8076L45.9844 47.7148H51.0205V50ZM59.6689 37.0186V39.3477H59.5371C58.4297 39.3477 57.5186 39.6143 56.8037 40.1475C56.0947 40.6748 55.6582 41.4102 55.4941 42.3535C56.1621 41.6973 57.0059 41.3691 58.0254 41.3691C59.1328 41.3691 60.0146 41.7734 60.6709 42.582C61.3271 43.3906 61.6553 44.4512 61.6553 45.7637C61.6553 46.5781 61.4619 47.3252 61.0752 48.0049C60.6943 48.6846 60.1582 49.2178 59.4668 49.6045C58.7812 49.9854 58.0195 50.1758 57.1816 50.1758C56.2734 50.1758 55.4619 49.9707 54.7471 49.5605C54.0322 49.1445 53.4756 48.5527 53.0771 47.7852C52.6787 47.0176 52.4736 46.1328 52.4619 45.1309V43.9443C52.4619 42.626 52.7432 41.4424 53.3057 40.3936C53.874 39.3389 54.6826 38.5127 55.7314 37.915C56.7803 37.3174 57.9434 37.0186 59.2207 37.0186H59.6689ZM56.9971 43.6367C56.6045 43.6367 56.2764 43.7275 56.0127 43.9092C55.749 44.0908 55.5527 44.3135 55.4238 44.5771V45.4648C55.4238 47.082 55.9834 47.8906 57.1025 47.8906C57.5537 47.8906 57.9287 47.6885 58.2275 47.2842C58.5322 46.8799 58.6846 46.373 58.6846 45.7637C58.6846 45.1367 58.5293 44.627 58.2188 44.2344C57.9141 43.8359 57.5068 43.6367 56.9971 43.6367ZM67.6582 45.043C67.6582 46.4199 67.4561 47.7266 67.0518 48.9629C66.6475 50.1992 66.0879 51.2598 65.373 52.1445C64.6641 53.0352 63.8965 53.6387 63.0703 53.9551L62.5078 52.4961C63.3223 51.8867 63.9521 50.9492 64.3975 49.6836C64.8428 48.418 65.0742 46.9619 65.0918 45.3154V44.7793C65.0918 43.0156 64.8662 41.4863 64.415 40.1914C63.9697 38.8965 63.334 37.9473 62.5078 37.3438L63.0703 35.8848C63.8906 36.207 64.6523 36.8047 65.3555 37.6777C66.0645 38.5449 66.6211 39.5908 67.0254 40.8154C67.4355 42.0342 67.6465 43.3145 67.6582 44.6562V45.043ZM82.6523 44.7705C82.6523 46.499 82.2627 47.832 81.4834 48.7695C80.71 49.707 79.6172 50.1758 78.2051 50.1758C76.7812 50.1758 75.6797 49.7041 74.9004 48.7607C74.1211 47.8174 73.7314 46.4873 73.7314 44.7705V42.4326C73.7314 40.7041 74.1182 39.3711 74.8916 38.4336C75.6709 37.4961 76.7695 37.0273 78.1875 37.0273C79.6055 37.0273 80.7041 37.499 81.4834 38.4424C82.2627 39.3857 82.6523 40.7188 82.6523 42.4414V44.7705ZM79.6904 42.0547C79.6904 41.1348 79.5703 40.4492 79.3301 39.998C79.0898 39.541 78.709 39.3125 78.1875 39.3125C77.6777 39.3125 77.3057 39.5234 77.0713 39.9453C76.8428 40.3672 76.7197 41.0059 76.7021 41.8613V45.1309C76.7021 46.0859 76.8223 46.7861 77.0625 47.2314C77.3027 47.6709 77.6836 47.8906 78.2051 47.8906C78.709 47.8906 79.0811 47.6768 79.3213 47.249C79.5615 46.8154 79.6846 46.1387 79.6904 45.2188V42.0547ZM93.0762 44.7705C93.0762 46.499 92.6865 47.832 91.9072 48.7695C91.1338 49.707 90.041 50.1758 88.6289 50.1758C87.2051 50.1758 86.1035 49.7041 85.3242 48.7607C84.5449 47.8174 84.1553 46.4873 84.1553 44.7705V42.4326C84.1553 40.7041 84.542 39.3711 85.3154 38.4336C86.0947 37.4961 87.1934 37.0273 88.6113 37.0273C90.0293 37.0273 91.1279 37.499 91.9072 38.4424C92.6865 39.3857 93.0762 40.7188 93.0762 42.4414V44.7705ZM90.1143 42.0547C90.1143 41.1348 89.9941 40.4492 89.7539 39.998C89.5137 39.541 89.1328 39.3125 88.6113 39.3125C88.1016 39.3125 87.7295 39.5234 87.4951 39.9453C87.2666 40.3672 87.1436 41.0059 87.126 41.8613V45.1309C87.126 46.0859 87.2461 46.7861 87.4863 47.2314C87.7266 47.6709 88.1074 47.8906 88.6289 47.8906C89.1328 47.8906 89.5049 47.6768 89.7451 47.249C89.9854 46.8154 90.1084 46.1387 90.1143 45.2188V42.0547ZM103.5 44.7705C103.5 46.499 103.11 47.832 102.331 48.7695C101.558 49.707 100.465 50.1758 99.0527 50.1758C97.6289 50.1758 96.5273 49.7041 95.748 48.7607C94.9688 47.8174 94.5791 46.4873 94.5791 44.7705V42.4326C94.5791 40.7041 94.9658 39.3711 95.7393 38.4336C96.5186 37.4961 97.6172 37.0273 99.0352 37.0273C100.453 37.0273 101.552 37.499 102.331 38.4424C103.11 39.3857 103.5 40.7188 103.5 42.4414V44.7705ZM100.538 42.0547C100.538 41.1348 100.418 40.4492 100.178 39.998C99.9375 39.541 99.5566 39.3125 99.0352 39.3125C98.5254 39.3125 98.1533 39.5234 97.9189 39.9453C97.6904 40.3672 97.5674 41.0059 97.5498 41.8613V45.1309C97.5498 46.0859 97.6699 46.7861 97.9102 47.2314C98.1504 47.6709 98.5312 47.8906 99.0527 47.8906C99.5566 47.8906 99.9287 47.6768 100.169 47.249C100.409 46.8154 100.532 46.1387 100.538 45.2188V42.0547ZM118.406 44.7705C118.406 46.499 118.017 47.832 117.237 48.7695C116.464 49.707 115.371 50.1758 113.959 50.1758C112.535 50.1758 111.434 49.7041 110.654 48.7607C109.875 47.8174 109.485 46.4873 109.485 44.7705V42.4326C109.485 40.7041 109.872 39.3711 110.646 38.4336C111.425 37.4961 112.523 37.0273 113.941 37.0273C115.359 37.0273 116.458 37.499 117.237 38.4424C118.017 39.3857 118.406 40.7188 118.406 42.4414V44.7705ZM115.444 42.0547C115.444 41.1348 115.324 40.4492 115.084 39.998C114.844 39.541 114.463 39.3125 113.941 39.3125C113.432 39.3125 113.06 39.5234 112.825 39.9453C112.597 40.3672 112.474 41.0059 112.456 41.8613V45.1309C112.456 46.0859 112.576 46.7861 112.816 47.2314C113.057 47.6709 113.438 47.8906 113.959 47.8906C114.463 47.8906 114.835 47.6768 115.075 47.249C115.315 46.8154 115.438 46.1387 115.444 45.2188V42.0547ZM128.83 44.7705C128.83 46.499 128.44 47.832 127.661 48.7695C126.888 49.707 125.795 50.1758 124.383 50.1758C122.959 50.1758 121.857 49.7041 121.078 48.7607C120.299 47.8174 119.909 46.4873 119.909 44.7705V42.4326C119.909 40.7041 120.296 39.3711 121.069 38.4336C121.849 37.4961 122.947 37.0273 124.365 37.0273C125.783 37.0273 126.882 37.499 127.661 38.4424C128.44 39.3857 128.83 40.7188 128.83 42.4414V44.7705ZM125.868 42.0547C125.868 41.1348 125.748 40.4492 125.508 39.998C125.268 39.541 124.887 39.3125 124.365 39.3125C123.855 39.3125 123.483 39.5234 123.249 39.9453C123.021 40.3672 122.897 41.0059 122.88 41.8613V45.1309C122.88 46.0859 123 46.7861 123.24 47.2314C123.48 47.6709 123.861 47.8906 124.383 47.8906C124.887 47.8906 125.259 47.6768 125.499 47.249C125.739 46.8154 125.862 46.1387 125.868 45.2188V42.0547ZM143.736 44.7705C143.736 46.499 143.347 47.832 142.567 48.7695C141.794 49.707 140.701 50.1758 139.289 50.1758C137.865 50.1758 136.764 49.7041 135.984 48.7607C135.205 47.8174 134.815 46.4873 134.815 44.7705V42.4326C134.815 40.7041 135.202 39.3711 135.976 38.4336C136.755 37.4961 137.854 37.0273 139.271 37.0273C140.689 37.0273 141.788 37.499 142.567 38.4424C143.347 39.3857 143.736 40.7188 143.736 42.4414V44.7705ZM140.774 42.0547C140.774 41.1348 140.654 40.4492 140.414 39.998C140.174 39.541 139.793 39.3125 139.271 39.3125C138.762 39.3125 138.39 39.5234 138.155 39.9453C137.927 40.3672 137.804 41.0059 137.786 41.8613V45.1309C137.786 46.0859 137.906 46.7861 138.146 47.2314C138.387 47.6709 138.768 47.8906 139.289 47.8906C139.793 47.8906 140.165 47.6768 140.405 47.249C140.646 46.8154 140.769 46.1387 140.774 45.2188V42.0547ZM154.16 44.7705C154.16 46.499 153.771 47.832 152.991 48.7695C152.218 49.707 151.125 50.1758 149.713 50.1758C148.289 50.1758 147.188 49.7041 146.408 48.7607C145.629 47.8174 145.239 46.4873 145.239 44.7705V42.4326C145.239 40.7041 145.626 39.3711 146.399 38.4336C147.179 37.4961 148.277 37.0273 149.695 37.0273C151.113 37.0273 152.212 37.499 152.991 38.4424C153.771 39.3857 154.16 40.7188 154.16 42.4414V44.7705ZM151.198 42.0547C151.198 41.1348 151.078 40.4492 150.838 39.998C150.598 39.541 150.217 39.3125 149.695 39.3125C149.186 39.3125 148.813 39.5234 148.579 39.9453C148.351 40.3672 148.228 41.0059 148.21 41.8613V45.1309C148.21 46.0859 148.33 46.7861 148.57 47.2314C148.811 47.6709 149.191 47.8906 149.713 47.8906C150.217 47.8906 150.589 47.6768 150.829 47.249C151.069 46.8154 151.192 46.1387 151.198 45.2188V42.0547Z" fill="#E1E6E9"/>
<g clip-path="url(#clip0)">
<path d="M263.403 32.892L262.543 44.9907C263.774 44.9907 264.307 44.462 264.946 43.8272L270.716 38.313L282.672 47.0685C284.864 48.2905 286.409 47.647 287.001 45.0513L294.848 8.27865L294.85 8.27649C295.546 5.03515 293.678 3.76765 291.542 4.56282L245.414 22.2233C242.265 23.4453 242.313 25.2003 244.878 25.9955L256.672 29.6637L284.065 12.5232C285.354 11.6695 286.526 12.1418 285.562 12.9955L263.403 32.892Z" fill="white"/>
</g>
<path d="M199.007 0H198.993C184.658 0 173 11.661 173 26C173 31.6875 174.833 36.959 177.95 41.2393L174.71 50.8983L184.703 47.7035C188.814 50.427 193.719 52 199.007 52C213.342 52 225 40.3358 225 26C225 11.6643 213.342 0 199.007 0Z" fill="white"/>
<path d="M214.135 36.7153C213.508 38.4866 211.019 39.9556 209.033 40.3846C207.674 40.6738 205.9 40.9046 199.926 38.4281C192.286 35.2626 187.365 27.4983 186.982 26.9946C186.614 26.4908 183.894 22.8833 183.894 19.1523C183.894 15.4213 185.789 13.6046 186.553 12.8246C187.18 12.1843 188.217 11.8918 189.211 11.8918C189.533 11.8918 189.822 11.9081 190.082 11.9211C190.846 11.9536 191.229 11.9991 191.733 13.2048C192.36 14.7161 193.888 18.4471 194.07 18.8306C194.255 19.2141 194.44 19.7341 194.18 20.2378C193.937 20.7578 193.722 20.9886 193.339 21.4306C192.955 21.8726 192.591 22.2106 192.208 22.6851C191.857 23.0978 191.46 23.5398 191.902 24.3036C192.344 25.0511 193.872 27.5438 196.121 29.5458C199.023 32.1296 201.376 32.9551 202.218 33.3061C202.845 33.5661 203.592 33.5043 204.051 33.0168C204.632 32.3896 205.351 31.3496 206.082 30.3258C206.602 29.5913 207.258 29.5003 207.947 29.7603C208.649 30.0041 212.364 31.8403 213.128 32.2206C213.892 32.6041 214.395 32.7861 214.581 33.1078C214.763 33.4296 214.763 34.9408 214.135 36.7153Z" fill="#2E009F"/>
<defs>
<clipPath id="clip0">
<rect width="52" height="52" fill="white" transform="translate(243)"/>
</clipPath>
</defs>
</svg>
