<svg width="177" height="22" viewBox="0 0 177 22" fill="none" xmlns="http://www.w3.org/2000/svg">
<path d="M31.8486 5.20312L34.7051 14.1064L37.5527 5.20312H41.6133V18H38.5195V15.0117L38.8184 8.89453L35.7246 18H33.6855L30.583 8.88574L30.8818 15.0117V18H27.7969V5.20312H31.8486ZM48.0469 18.1758C46.5879 18.1758 45.4072 17.7422 44.5049 16.875C43.6025 16.002 43.1514 14.8682 43.1514 13.4736V13.2275C43.1514 12.2549 43.3301 11.3965 43.6875 10.6523C44.0508 9.9082 44.5781 9.33398 45.2695 8.92969C45.9609 8.51953 46.7812 8.31445 47.7305 8.31445C49.0664 8.31445 50.1211 8.73047 50.8945 9.5625C51.668 10.3887 52.0547 11.543 52.0547 13.0254V14.1768H46.166C46.2715 14.71 46.5029 15.1289 46.8604 15.4336C47.2178 15.7383 47.6807 15.8906 48.249 15.8906C49.1865 15.8906 49.9189 15.5625 50.4463 14.9062L51.7998 16.5059C51.4307 17.0156 50.9062 17.4229 50.2266 17.7275C49.5527 18.0264 48.8262 18.1758 48.0469 18.1758ZM47.7129 10.5996C46.8457 10.5996 46.3301 11.1738 46.166 12.3223H49.1543V12.0938C49.166 11.6191 49.0459 11.2529 48.7939 10.9951C48.542 10.7314 48.1816 10.5996 47.7129 10.5996ZM57.2754 15.8906C57.6914 15.8906 58.0137 15.7793 58.2422 15.5566C58.4707 15.3281 58.582 15.0117 58.5762 14.6074H61.3535C61.3535 15.6504 60.9785 16.5059 60.2285 17.1738C59.4844 17.8418 58.5234 18.1758 57.3457 18.1758C55.9629 18.1758 54.873 17.7422 54.0762 16.875C53.2793 16.0078 52.8809 14.8066 52.8809 13.2715V13.1484C52.8809 12.1875 53.0566 11.3408 53.4082 10.6084C53.7656 9.87012 54.2783 9.30469 54.9463 8.91211C55.6143 8.51367 56.4053 8.31445 57.3193 8.31445C58.5557 8.31445 59.5371 8.65723 60.2637 9.34277C60.9902 10.0283 61.3535 10.957 61.3535 12.1289H58.5762C58.5762 11.6367 58.4561 11.2588 58.2158 10.9951C57.9756 10.7314 57.6533 10.5996 57.249 10.5996C56.4814 10.5996 56.0332 11.0889 55.9043 12.0674C55.8633 12.3779 55.8428 12.8057 55.8428 13.3506C55.8428 14.3057 55.957 14.9678 56.1855 15.3369C56.4141 15.7061 56.7773 15.8906 57.2754 15.8906ZM70.9336 10.7578H67.9365V18H64.957V10.7578H62.0039V8.49023H70.9336V10.7578ZM71.4082 13.1572C71.4082 12.208 71.5928 11.3643 71.9619 10.626C72.3311 9.88184 72.8613 9.31055 73.5527 8.91211C74.2441 8.51367 75.0557 8.31445 75.9873 8.31445C77.4111 8.31445 78.5332 8.75684 79.3535 9.6416C80.1738 10.5205 80.584 11.7188 80.584 13.2363V13.3418C80.584 14.8242 80.1709 16.002 79.3447 16.875C78.5244 17.7422 77.4111 18.1758 76.0049 18.1758C74.6514 18.1758 73.5645 17.7715 72.7441 16.9629C71.9238 16.1484 71.4814 15.0469 71.417 13.6582L71.4082 13.1572ZM74.3701 13.3418C74.3701 14.2207 74.5078 14.8652 74.7832 15.2754C75.0586 15.6855 75.4658 15.8906 76.0049 15.8906C77.0596 15.8906 77.5986 15.0791 77.6221 13.4561V13.1572C77.6221 11.4521 77.0771 10.5996 75.9873 10.5996C74.9971 10.5996 74.4609 11.335 74.3789 12.8057L74.3701 13.3418ZM90.3926 18H87.4131V10.7754H84.7939V18H81.832V8.49023H90.3926V18ZM91.6055 13.1572C91.6055 12.208 91.79 11.3643 92.1592 10.626C92.5283 9.88184 93.0586 9.31055 93.75 8.91211C94.4414 8.51367 95.2529 8.31445 96.1846 8.31445C97.6084 8.31445 98.7305 8.75684 99.5508 9.6416C100.371 10.5205 100.781 11.7188 100.781 13.2363V13.3418C100.781 14.8242 100.368 16.002 99.542 16.875C98.7217 17.7422 97.6084 18.1758 96.2021 18.1758C94.8486 18.1758 93.7617 17.7715 92.9414 16.9629C92.1211 16.1484 91.6787 15.0469 91.6143 13.6582L91.6055 13.1572ZM94.5674 13.3418C94.5674 14.2207 94.7051 14.8652 94.9805 15.2754C95.2559 15.6855 95.6631 15.8906 96.2021 15.8906C97.2568 15.8906 97.7959 15.0791 97.8193 13.4561V13.1572C97.8193 11.4521 97.2744 10.5996 96.1846 10.5996C95.1943 10.5996 94.6582 11.335 94.5762 12.8057L94.5674 13.3418ZM110.44 8.49023V18H107.479V10.7754H105.703L105.545 13.6846C105.434 15.126 105.108 16.2041 104.569 16.9189C104.03 17.6338 103.23 17.9941 102.17 18H101.238L101.203 15.7324L101.511 15.6973C101.903 15.6504 102.193 15.3896 102.381 14.915C102.574 14.4346 102.697 13.7109 102.75 12.7441L102.935 8.49023H110.44ZM111.68 13.1572C111.68 12.208 111.864 11.3643 112.233 10.626C112.603 9.88184 113.133 9.31055 113.824 8.91211C114.516 8.51367 115.327 8.31445 116.259 8.31445C117.683 8.31445 118.805 8.75684 119.625 9.6416C120.445 10.5205 120.855 11.7188 120.855 13.2363V13.3418C120.855 14.8242 120.442 16.002 119.616 16.875C118.796 17.7422 117.683 18.1758 116.276 18.1758C114.923 18.1758 113.836 17.7715 113.016 16.9629C112.195 16.1484 111.753 15.0469 111.688 13.6582L111.68 13.1572ZM114.642 13.3418C114.642 14.2207 114.779 14.8652 115.055 15.2754C115.33 15.6855 115.737 15.8906 116.276 15.8906C117.331 15.8906 117.87 15.0791 117.894 13.4561V13.1572C117.894 11.4521 117.349 10.5996 116.259 10.5996C115.269 10.5996 114.732 11.335 114.65 12.8057L114.642 13.3418ZM131.903 14.6777H130.778V18H127.816V14.6777H126.718L125.092 18H121.576L124.406 12.9111L121.462 8.49023H125.162L126.964 11.9092H127.816V8.49023H130.778V11.9092H131.657L133.468 8.49023H137.168L134.206 12.9287L134.294 12.8848L137.142 18H133.521L131.903 14.6777ZM142.635 18.1758C141.176 18.1758 139.995 17.7422 139.093 16.875C138.19 16.002 137.739 14.8682 137.739 13.4736V13.2275C137.739 12.2549 137.918 11.3965 138.275 10.6523C138.639 9.9082 139.166 9.33398 139.857 8.92969C140.549 8.51953 141.369 8.31445 142.318 8.31445C143.654 8.31445 144.709 8.73047 145.482 9.5625C146.256 10.3887 146.643 11.543 146.643 13.0254V14.1768H140.754C140.859 14.71 141.091 15.1289 141.448 15.4336C141.806 15.7383 142.269 15.8906 142.837 15.8906C143.774 15.8906 144.507 15.5625 145.034 14.9062L146.388 16.5059C146.019 17.0156 145.494 17.4229 144.814 17.7275C144.141 18.0264 143.414 18.1758 142.635 18.1758ZM142.301 10.5996C141.434 10.5996 140.918 11.1738 140.754 12.3223H143.742V12.0938C143.754 11.6191 143.634 11.2529 143.382 10.9951C143.13 10.7314 142.77 10.5996 142.301 10.5996ZM156.311 18H153.34V14.4756H150.747V18H147.785V8.49023H150.747V12.1992H153.34V8.49023H156.311V18ZM163.465 8.49023H166.436V18H163.465V12.4629L160.854 18H157.875V8.49023H160.854V14.0098L163.465 8.49023ZM172.623 18.1758C171.164 18.1758 169.983 17.7422 169.081 16.875C168.179 16.002 167.728 14.8682 167.728 13.4736V13.2275C167.728 12.2549 167.906 11.3965 168.264 10.6523C168.627 9.9082 169.154 9.33398 169.846 8.92969C170.537 8.51953 171.357 8.31445 172.307 8.31445C173.643 8.31445 174.697 8.73047 175.471 9.5625C176.244 10.3887 176.631 11.543 176.631 13.0254V14.1768H170.742C170.848 14.71 171.079 15.1289 171.437 15.4336C171.794 15.7383 172.257 15.8906 172.825 15.8906C173.763 15.8906 174.495 15.5625 175.022 14.9062L176.376 16.5059C176.007 17.0156 175.482 17.4229 174.803 17.7275C174.129 18.0264 173.402 18.1758 172.623 18.1758ZM172.289 10.5996C171.422 10.5996 170.906 11.1738 170.742 12.3223H173.73V12.0938C173.742 11.6191 173.622 11.2529 173.37 10.9951C173.118 10.7314 172.758 10.5996 172.289 10.5996Z" fill="#E1E6E9"/>
<g clip-path="url(#clip0)">
<path d="M17.5131 3.76739C16.1779 1.46324 13.8064 0.0555371 11.1692 0.00174023C11.0566 -0.000580078 10.9433 -0.000580078 10.8307 0.00174023C8.19351 0.0555371 5.82198 1.46324 4.48677 3.76739C3.12199 6.1226 3.08465 8.95166 4.38687 11.3352L9.84231 21.3206C9.84476 21.325 9.8472 21.3294 9.84974 21.3338C10.0898 21.751 10.5198 22 11 22C11.4802 22 11.9102 21.7509 12.1502 21.3338C12.1527 21.3294 12.1552 21.325 12.1576 21.3206L17.6131 11.3352C18.9152 8.95166 18.8779 6.1226 17.5131 3.76739ZM10.9999 9.96877C9.29402 9.96877 7.90618 8.58092 7.90618 6.87502C7.90618 5.16912 9.29402 3.78127 10.9999 3.78127C12.7058 3.78127 14.0937 5.16912 14.0937 6.87502C14.0937 8.58092 12.7059 9.96877 10.9999 9.96877Z" fill="#E1E6E9"/>
</g>
<defs>
<clipPath id="clip0">
<rect width="22" height="22" fill="white"/>
</clipPath>
</defs>
</svg>
